<mxfile host="app.diagrams.net" modified="2022-06-08T06:00:22.127Z" agent="5.0 (Windows NT 10.0; Win64; x64) AppleWebKit/537.36 (KHTML, like Gecko) Chrome/102.0.5005.63 Safari/537.36" etag="0PNV_OZYHTlxc98a1mW0" version="19.0.2" type="github">
  <diagram id="Nj5eHDuCgA3VrANhKelG" name="Page-1">
    <mxGraphModel dx="880" dy="1041" grid="1" gridSize="10" guides="1" tooltips="1" connect="1" arrows="1" fold="1" page="1" pageScale="1" pageWidth="827" pageHeight="1169" math="0" shadow="0">
      <root>
        <mxCell id="0" />
        <mxCell id="1" parent="0" />
        <mxCell id="pxe3OuAeltRgRrof1Hcg-1" value="User" style="swimlane;childLayout=stackLayout;horizontal=1;startSize=30;horizontalStack=0;rounded=1;fontSize=14;fontStyle=0;strokeWidth=2;resizeParent=0;resizeLast=1;shadow=0;dashed=0;align=center;" parent="1" vertex="1">
          <mxGeometry x="110" y="40" width="160" height="320" as="geometry" />
        </mxCell>
        <mxCell id="pxe3OuAeltRgRrof1Hcg-2" value="id(PK) Long&#xa;userId String&#xa;password String&#xa;name String&#xa;email String&#xa;nickname String&#xa;picture String nullable&#xa;birthDate LocalDateTime&#xa;gender enum&#xa;phoneNumber String&#xa;joinMethod enum&#xa;authentication Boolean&#xa;role enum&#xa;createdDate LocalDateTime&#xa;modifiedDate LocalDateTime" style="align=left;strokeColor=none;fillColor=none;spacingLeft=4;fontSize=12;verticalAlign=top;resizable=0;rotatable=0;part=1;" parent="pxe3OuAeltRgRrof1Hcg-1" vertex="1">
          <mxGeometry y="30" width="160" height="290" as="geometry" />
        </mxCell>
        <mxCell id="pxe3OuAeltRgRrof1Hcg-3" value="Post" style="swimlane;childLayout=stackLayout;horizontal=1;startSize=30;horizontalStack=0;rounded=1;fontSize=14;fontStyle=0;strokeWidth=2;resizeParent=0;resizeLast=1;shadow=0;dashed=0;align=center;" parent="1" vertex="1">
          <mxGeometry x="380" y="40" width="160" height="320" as="geometry" />
        </mxCell>
        <mxCell id="pxe3OuAeltRgRrof1Hcg-4" value="id(PK) Long&#xa;author(FK) Long&#xa;title String&#xa;content String&#xa;category enum&#xa;tags ArrayList&lt;String&gt; nullable&#xa;latitude String nullable&#xa;longitude String nullable&#xa;startDate LocalDateTime&#xa;endDate LocalDateTime&#xa;curHeadcount Integer nullable&#xa;totalHeadcount Integer nullable&#xa;images ArrayList&lt;String&gt; nullable&#xa;thumbnail String nullable&#xa;budget Integer nullable&#xa;recommendationCount Integer&#xa;viewCount Integer&#xa;createdDate LocalDateTime&#xa;modifiedDate LocalDateTime" style="align=left;strokeColor=none;fillColor=none;spacingLeft=4;fontSize=12;verticalAlign=top;resizable=0;rotatable=0;part=1;" parent="pxe3OuAeltRgRrof1Hcg-3" vertex="1">
          <mxGeometry y="30" width="160" height="290" as="geometry" />
        </mxCell>
        <mxCell id="pxe3OuAeltRgRrof1Hcg-10" value="" style="edgeStyle=entityRelationEdgeStyle;fontSize=12;html=1;endArrow=ERoneToMany;rounded=0;" parent="1" edge="1">
          <mxGeometry width="100" height="100" relative="1" as="geometry">
            <mxPoint x="270" y="80" as="sourcePoint" />
            <mxPoint x="380" y="100" as="targetPoint" />
          </mxGeometry>
        </mxCell>
        <mxCell id="pxe3OuAeltRgRrof1Hcg-11" value="Bookmark" style="swimlane;childLayout=stackLayout;horizontal=1;startSize=30;horizontalStack=0;rounded=1;fontSize=14;fontStyle=0;strokeWidth=2;resizeParent=0;resizeLast=1;shadow=0;dashed=0;align=center;" parent="1" vertex="1">
          <mxGeometry x="380" y="490" width="160" height="130" as="geometry" />
        </mxCell>
        <mxCell id="pxe3OuAeltRgRrof1Hcg-12" value="id(PK) Long&#xa;userId(FK) Long&#xa;postId(FK) Long&#xa;boomarkName String&#xa;createdDate LocalDateTime&#xa;modifiedDate LocalDateTime" style="align=left;strokeColor=none;fillColor=none;spacingLeft=4;fontSize=12;verticalAlign=top;resizable=0;rotatable=0;part=1;" parent="pxe3OuAeltRgRrof1Hcg-11" vertex="1">
          <mxGeometry y="30" width="160" height="100" as="geometry" />
        </mxCell>
        <mxCell id="pxe3OuAeltRgRrof1Hcg-14" value="Report" style="swimlane;childLayout=stackLayout;horizontal=1;startSize=30;horizontalStack=0;rounded=1;fontSize=14;fontStyle=0;strokeWidth=2;resizeParent=0;resizeLast=1;shadow=0;dashed=0;align=center;" parent="1" vertex="1">
          <mxGeometry x="380" y="1009" width="160" height="161" as="geometry" />
        </mxCell>
        <mxCell id="pxe3OuAeltRgRrof1Hcg-15" value="id(PK) Long&#xa;userPostId(FK) Long&#xa;reportId(FK) Long&#xa;userPost enum&#xa;kind enum&#xa;content String nullable&#xa;createdDate LocalDateTime&#xa;modifiedDate LocalDateTime" style="align=left;strokeColor=none;fillColor=none;spacingLeft=4;fontSize=12;verticalAlign=top;resizable=0;rotatable=0;part=1;" parent="pxe3OuAeltRgRrof1Hcg-14" vertex="1">
          <mxGeometry y="30" width="160" height="131" as="geometry" />
        </mxCell>
        <mxCell id="pxe3OuAeltRgRrof1Hcg-16" value="Like" style="swimlane;childLayout=stackLayout;horizontal=1;startSize=30;horizontalStack=0;rounded=1;fontSize=14;fontStyle=0;strokeWidth=2;resizeParent=0;resizeLast=1;shadow=0;dashed=0;align=center;" parent="1" vertex="1">
          <mxGeometry x="380" y="650" width="160" height="120" as="geometry" />
        </mxCell>
        <mxCell id="pxe3OuAeltRgRrof1Hcg-17" value="id(PK) Long&#xa;userId(FK) Long&#xa;postId(FK) Long&#xa;createdDate LocalDateTime&#xa;modifiedDate LocalDateTime" style="align=left;strokeColor=none;fillColor=none;spacingLeft=4;fontSize=12;verticalAlign=top;resizable=0;rotatable=0;part=1;" parent="pxe3OuAeltRgRrof1Hcg-16" vertex="1">
          <mxGeometry y="30" width="160" height="90" as="geometry" />
        </mxCell>
        <mxCell id="pxe3OuAeltRgRrof1Hcg-21" value="" style="edgeStyle=entityRelationEdgeStyle;fontSize=12;html=1;endArrow=ERoneToMany;rounded=0;exitX=1;exitY=0.034;exitDx=0;exitDy=0;exitPerimeter=0;entryX=0;entryY=0.25;entryDx=0;entryDy=0;" parent="1" source="pxe3OuAeltRgRrof1Hcg-2" target="pxe3OuAeltRgRrof1Hcg-12" edge="1">
          <mxGeometry width="100" height="100" relative="1" as="geometry">
            <mxPoint x="10" y="560" as="sourcePoint" />
            <mxPoint x="110" y="460" as="targetPoint" />
          </mxGeometry>
        </mxCell>
        <mxCell id="pxe3OuAeltRgRrof1Hcg-23" value="" style="edgeStyle=entityRelationEdgeStyle;fontSize=12;html=1;endArrow=ERoneToMany;rounded=0;entryX=1;entryY=0.5;entryDx=0;entryDy=0;" parent="1" target="pxe3OuAeltRgRrof1Hcg-12" edge="1">
          <mxGeometry width="100" height="100" relative="1" as="geometry">
            <mxPoint x="540" y="80" as="sourcePoint" />
            <mxPoint x="640" y="-20" as="targetPoint" />
          </mxGeometry>
        </mxCell>
        <mxCell id="pxe3OuAeltRgRrof1Hcg-24" value="" style="edgeStyle=entityRelationEdgeStyle;fontSize=12;html=1;endArrow=ERoneToMany;rounded=0;entryX=0;entryY=0.5;entryDx=0;entryDy=0;exitX=1.006;exitY=0.034;exitDx=0;exitDy=0;exitPerimeter=0;" parent="1" source="pxe3OuAeltRgRrof1Hcg-2" target="pxe3OuAeltRgRrof1Hcg-16" edge="1">
          <mxGeometry width="100" height="100" relative="1" as="geometry">
            <mxPoint x="270" y="110" as="sourcePoint" />
            <mxPoint x="370" y="10" as="targetPoint" />
          </mxGeometry>
        </mxCell>
        <mxCell id="pxe3OuAeltRgRrof1Hcg-25" value="" style="edgeStyle=entityRelationEdgeStyle;fontSize=12;html=1;endArrow=ERoneToMany;rounded=0;entryX=1;entryY=0.25;entryDx=0;entryDy=0;" parent="1" target="pxe3OuAeltRgRrof1Hcg-17" edge="1">
          <mxGeometry width="100" height="100" relative="1" as="geometry">
            <mxPoint x="540" y="80" as="sourcePoint" />
            <mxPoint x="640" y="-30" as="targetPoint" />
          </mxGeometry>
        </mxCell>
        <mxCell id="pxe3OuAeltRgRrof1Hcg-26" value="Reply" style="swimlane;childLayout=stackLayout;horizontal=1;startSize=30;horizontalStack=0;rounded=1;fontSize=14;fontStyle=0;strokeWidth=2;resizeParent=0;resizeLast=1;shadow=0;dashed=0;align=center;" parent="1" vertex="1">
          <mxGeometry x="380" y="800" width="160" height="170" as="geometry" />
        </mxCell>
        <mxCell id="pxe3OuAeltRgRrof1Hcg-27" value="id(PK) Long&#xa;postId(FK) Long&#xa;userId(FK) Long&#xa;parentReply Long nullable&#xa;content String&#xa;createdDate LocalDateTime&#xa;modifiedDate LocalDateTime&#xa;" style="align=left;strokeColor=none;fillColor=none;spacingLeft=4;fontSize=12;verticalAlign=top;resizable=0;rotatable=0;part=1;" parent="pxe3OuAeltRgRrof1Hcg-26" vertex="1">
          <mxGeometry y="30" width="160" height="140" as="geometry" />
        </mxCell>
        <mxCell id="pxe3OuAeltRgRrof1Hcg-29" value="" style="edgeStyle=entityRelationEdgeStyle;fontSize=12;html=1;endArrow=ERoneToMany;rounded=0;entryX=0.994;entryY=0.15;entryDx=0;entryDy=0;entryPerimeter=0;" parent="1" target="pxe3OuAeltRgRrof1Hcg-27" edge="1">
          <mxGeometry width="100" height="100" relative="1" as="geometry">
            <mxPoint x="540" y="80" as="sourcePoint" />
            <mxPoint x="640" y="-20" as="targetPoint" />
          </mxGeometry>
        </mxCell>
        <mxCell id="pxe3OuAeltRgRrof1Hcg-30" value="" style="edgeStyle=entityRelationEdgeStyle;fontSize=12;html=1;endArrow=ERoneToMany;rounded=0;entryX=-0.012;entryY=0.3;entryDx=0;entryDy=0;entryPerimeter=0;" parent="1" target="pxe3OuAeltRgRrof1Hcg-27" edge="1">
          <mxGeometry width="100" height="100" relative="1" as="geometry">
            <mxPoint x="270" y="80" as="sourcePoint" />
            <mxPoint x="370" y="-20" as="targetPoint" />
          </mxGeometry>
        </mxCell>
        <mxCell id="pxe3OuAeltRgRrof1Hcg-31" value="Favor" style="swimlane;childLayout=stackLayout;horizontal=1;startSize=30;horizontalStack=0;rounded=1;fontSize=14;fontStyle=0;strokeWidth=2;resizeParent=0;resizeLast=1;shadow=0;dashed=0;align=center;" parent="1" vertex="1">
          <mxGeometry x="110" y="490" width="160" height="130" as="geometry" />
        </mxCell>
        <mxCell id="pxe3OuAeltRgRrof1Hcg-32" value="id(PK) Long&#xa;userId(FK) Long&#xa;category enum&#xa;choice String&#xa;createdDate LocalDateTime&#xa;modifiedDate LocalDateTime" style="align=left;strokeColor=none;fillColor=none;spacingLeft=4;fontSize=12;verticalAlign=top;resizable=0;rotatable=0;part=1;" parent="pxe3OuAeltRgRrof1Hcg-31" vertex="1">
          <mxGeometry y="30" width="160" height="100" as="geometry" />
        </mxCell>
        <mxCell id="pxe3OuAeltRgRrof1Hcg-33" value="" style="edgeStyle=entityRelationEdgeStyle;fontSize=12;html=1;endArrow=ERoneToMany;rounded=0;entryX=1;entryY=0.25;entryDx=0;entryDy=0;" parent="1" target="pxe3OuAeltRgRrof1Hcg-32" edge="1">
          <mxGeometry width="100" height="100" relative="1" as="geometry">
            <mxPoint x="270" y="80" as="sourcePoint" />
            <mxPoint x="370" y="-20" as="targetPoint" />
          </mxGeometry>
        </mxCell>
        <mxCell id="pxe3OuAeltRgRrof1Hcg-34" value="" style="edgeStyle=entityRelationEdgeStyle;fontSize=12;html=1;endArrow=ERoneToMany;rounded=0;entryX=0;entryY=0.25;entryDx=0;entryDy=0;" parent="1" target="pxe3OuAeltRgRrof1Hcg-15" edge="1">
          <mxGeometry width="100" height="100" relative="1" as="geometry">
            <mxPoint x="270" y="80" as="sourcePoint" />
            <mxPoint x="370" y="-20" as="targetPoint" />
          </mxGeometry>
        </mxCell>
        <mxCell id="pxe3OuAeltRgRrof1Hcg-35" value="" style="edgeStyle=entityRelationEdgeStyle;fontSize=12;html=1;endArrow=ERoneToMany;rounded=0;entryX=0.994;entryY=0.4;entryDx=0;entryDy=0;entryPerimeter=0;" parent="1" target="pxe3OuAeltRgRrof1Hcg-15" edge="1">
          <mxGeometry width="100" height="100" relative="1" as="geometry">
            <mxPoint x="540" y="80" as="sourcePoint" />
            <mxPoint x="640" y="-20" as="targetPoint" />
          </mxGeometry>
        </mxCell>
        <mxCell id="pxe3OuAeltRgRrof1Hcg-38" value="&lt;h1&gt;API&lt;/h1&gt;&lt;p&gt;/users/{id} : 사용자 list crud&lt;/p&gt;&lt;p&gt;/posts/{id}: 게시물 list crud&lt;/p&gt;&lt;p&gt;&lt;br&gt;&lt;/p&gt;&lt;p&gt;favor, bookmark, like, reply, report는 어떤 대상(user, post)에 대한 행위인지를 통해 route&lt;/p&gt;" style="text;html=1;strokeColor=none;fillColor=none;spacing=5;spacingTop=-20;whiteSpace=wrap;overflow=hidden;rounded=0;" parent="1" vertex="1">
          <mxGeometry x="20" y="1190" width="190" height="360" as="geometry" />
        </mxCell>
        <mxCell id="pxe3OuAeltRgRrof1Hcg-39" value="&lt;h1&gt;ERD&lt;/h1&gt;" style="text;html=1;strokeColor=none;fillColor=none;spacing=5;spacingTop=-20;whiteSpace=wrap;overflow=hidden;rounded=0;" parent="1" vertex="1">
          <mxGeometry x="20" y="10" width="190" height="120" as="geometry" />
        </mxCell>
        <mxCell id="z0WuMO5tnnBy8imYpAFS-12" style="edgeStyle=orthogonalEdgeStyle;rounded=0;orthogonalLoop=1;jettySize=auto;html=1;exitX=0.5;exitY=1;exitDx=0;exitDy=0;entryX=0;entryY=0.5;entryDx=0;entryDy=0;" edge="1" parent="1" source="z0WuMO5tnnBy8imYpAFS-1" target="z0WuMO5tnnBy8imYpAFS-7">
          <mxGeometry relative="1" as="geometry" />
        </mxCell>
        <mxCell id="z0WuMO5tnnBy8imYpAFS-14" style="edgeStyle=orthogonalEdgeStyle;rounded=0;orthogonalLoop=1;jettySize=auto;html=1;exitX=0.5;exitY=1;exitDx=0;exitDy=0;entryX=0;entryY=0.5;entryDx=0;entryDy=0;" edge="1" parent="1" source="z0WuMO5tnnBy8imYpAFS-1" target="z0WuMO5tnnBy8imYpAFS-13">
          <mxGeometry relative="1" as="geometry" />
        </mxCell>
        <mxCell id="z0WuMO5tnnBy8imYpAFS-16" style="edgeStyle=orthogonalEdgeStyle;rounded=0;orthogonalLoop=1;jettySize=auto;html=1;exitX=0.5;exitY=1;exitDx=0;exitDy=0;entryX=0;entryY=0.5;entryDx=0;entryDy=0;" edge="1" parent="1" source="z0WuMO5tnnBy8imYpAFS-1" target="z0WuMO5tnnBy8imYpAFS-15">
          <mxGeometry relative="1" as="geometry" />
        </mxCell>
        <mxCell id="z0WuMO5tnnBy8imYpAFS-29" style="edgeStyle=orthogonalEdgeStyle;rounded=0;orthogonalLoop=1;jettySize=auto;html=1;exitX=0.5;exitY=1;exitDx=0;exitDy=0;entryX=0;entryY=0.5;entryDx=0;entryDy=0;" edge="1" parent="1" source="z0WuMO5tnnBy8imYpAFS-1" target="z0WuMO5tnnBy8imYpAFS-28">
          <mxGeometry relative="1" as="geometry" />
        </mxCell>
        <mxCell id="z0WuMO5tnnBy8imYpAFS-36" style="edgeStyle=orthogonalEdgeStyle;rounded=0;orthogonalLoop=1;jettySize=auto;html=1;exitX=0.5;exitY=1;exitDx=0;exitDy=0;entryX=0;entryY=0.5;entryDx=0;entryDy=0;" edge="1" parent="1" source="z0WuMO5tnnBy8imYpAFS-1" target="z0WuMO5tnnBy8imYpAFS-35">
          <mxGeometry relative="1" as="geometry" />
        </mxCell>
        <mxCell id="z0WuMO5tnnBy8imYpAFS-1" value="/" style="rounded=0;whiteSpace=wrap;html=1;" vertex="1" parent="1">
          <mxGeometry x="80" y="1380" width="120" height="60" as="geometry" />
        </mxCell>
        <mxCell id="z0WuMO5tnnBy8imYpAFS-5" value="/register/{pageNum}" style="rounded=0;whiteSpace=wrap;html=1;" vertex="1" parent="1">
          <mxGeometry x="340" y="1750" width="120" height="60" as="geometry" />
        </mxCell>
        <mxCell id="z0WuMO5tnnBy8imYpAFS-10" style="edgeStyle=orthogonalEdgeStyle;rounded=0;orthogonalLoop=1;jettySize=auto;html=1;exitX=0.5;exitY=1;exitDx=0;exitDy=0;entryX=0;entryY=0.5;entryDx=0;entryDy=0;" edge="1" parent="1" source="z0WuMO5tnnBy8imYpAFS-7" target="z0WuMO5tnnBy8imYpAFS-8">
          <mxGeometry relative="1" as="geometry" />
        </mxCell>
        <mxCell id="z0WuMO5tnnBy8imYpAFS-11" style="edgeStyle=orthogonalEdgeStyle;rounded=0;orthogonalLoop=1;jettySize=auto;html=1;exitX=0.5;exitY=1;exitDx=0;exitDy=0;entryX=0;entryY=0.5;entryDx=0;entryDy=0;" edge="1" parent="1" source="z0WuMO5tnnBy8imYpAFS-7" target="z0WuMO5tnnBy8imYpAFS-9">
          <mxGeometry relative="1" as="geometry" />
        </mxCell>
        <mxCell id="z0WuMO5tnnBy8imYpAFS-43" style="edgeStyle=orthogonalEdgeStyle;rounded=0;orthogonalLoop=1;jettySize=auto;html=1;exitX=0.5;exitY=1;exitDx=0;exitDy=0;entryX=0;entryY=0.5;entryDx=0;entryDy=0;" edge="1" parent="1" source="z0WuMO5tnnBy8imYpAFS-7" target="z0WuMO5tnnBy8imYpAFS-42">
          <mxGeometry relative="1" as="geometry" />
        </mxCell>
        <mxCell id="z0WuMO5tnnBy8imYpAFS-50" style="edgeStyle=orthogonalEdgeStyle;rounded=0;orthogonalLoop=1;jettySize=auto;html=1;exitX=0.5;exitY=1;exitDx=0;exitDy=0;entryX=0;entryY=0.5;entryDx=0;entryDy=0;" edge="1" parent="1" source="z0WuMO5tnnBy8imYpAFS-7" target="z0WuMO5tnnBy8imYpAFS-49">
          <mxGeometry relative="1" as="geometry" />
        </mxCell>
        <mxCell id="z0WuMO5tnnBy8imYpAFS-51" style="edgeStyle=orthogonalEdgeStyle;rounded=0;orthogonalLoop=1;jettySize=auto;html=1;exitX=0.5;exitY=1;exitDx=0;exitDy=0;entryX=0;entryY=0.5;entryDx=0;entryDy=0;" edge="1" parent="1" source="z0WuMO5tnnBy8imYpAFS-7" target="z0WuMO5tnnBy8imYpAFS-48">
          <mxGeometry relative="1" as="geometry" />
        </mxCell>
        <mxCell id="z0WuMO5tnnBy8imYpAFS-7" value="/posts" style="rounded=0;whiteSpace=wrap;html=1;" vertex="1" parent="1">
          <mxGeometry x="190" y="2500" width="120" height="60" as="geometry" />
        </mxCell>
        <mxCell id="z0WuMO5tnnBy8imYpAFS-8" value="/posts/write" style="rounded=0;whiteSpace=wrap;html=1;" vertex="1" parent="1">
          <mxGeometry x="360" y="2760" width="120" height="60" as="geometry" />
        </mxCell>
        <mxCell id="z0WuMO5tnnBy8imYpAFS-9" value="/posts/{postId}" style="rounded=0;whiteSpace=wrap;html=1;" vertex="1" parent="1">
          <mxGeometry x="360" y="2850" width="120" height="60" as="geometry" />
        </mxCell>
        <mxCell id="z0WuMO5tnnBy8imYpAFS-13" value="/mates" style="rounded=0;whiteSpace=wrap;html=1;" vertex="1" parent="1">
          <mxGeometry x="190" y="3240" width="120" height="60" as="geometry" />
        </mxCell>
        <mxCell id="z0WuMO5tnnBy8imYpAFS-15" value="/chat" style="rounded=0;whiteSpace=wrap;html=1;" vertex="1" parent="1">
          <mxGeometry x="190" y="3380" width="120" height="60" as="geometry" />
        </mxCell>
        <mxCell id="z0WuMO5tnnBy8imYpAFS-47" style="edgeStyle=orthogonalEdgeStyle;rounded=0;orthogonalLoop=1;jettySize=auto;html=1;exitX=0.5;exitY=1;exitDx=0;exitDy=0;entryX=0;entryY=0.5;entryDx=0;entryDy=0;" edge="1" parent="1" source="z0WuMO5tnnBy8imYpAFS-19" target="z0WuMO5tnnBy8imYpAFS-46">
          <mxGeometry relative="1" as="geometry" />
        </mxCell>
        <mxCell id="z0WuMO5tnnBy8imYpAFS-19" value="/profile" style="rounded=0;whiteSpace=wrap;html=1;" vertex="1" parent="1">
          <mxGeometry x="340" y="2010" width="120" height="60" as="geometry" />
        </mxCell>
        <mxCell id="z0WuMO5tnnBy8imYpAFS-20" value="/posts" style="rounded=0;whiteSpace=wrap;html=1;" vertex="1" parent="1">
          <mxGeometry x="340" y="2210" width="120" height="60" as="geometry" />
        </mxCell>
        <mxCell id="z0WuMO5tnnBy8imYpAFS-24" value="/comments" style="rounded=0;whiteSpace=wrap;html=1;" vertex="1" parent="1">
          <mxGeometry x="340" y="2300" width="120" height="60" as="geometry" />
        </mxCell>
        <mxCell id="z0WuMO5tnnBy8imYpAFS-26" value="/likes" style="rounded=0;whiteSpace=wrap;html=1;" vertex="1" parent="1">
          <mxGeometry x="340" y="2380" width="120" height="60" as="geometry" />
        </mxCell>
        <mxCell id="z0WuMO5tnnBy8imYpAFS-32" style="edgeStyle=orthogonalEdgeStyle;rounded=0;orthogonalLoop=1;jettySize=auto;html=1;exitX=0.5;exitY=1;exitDx=0;exitDy=0;entryX=0;entryY=0.5;entryDx=0;entryDy=0;" edge="1" parent="1" source="z0WuMO5tnnBy8imYpAFS-28" target="z0WuMO5tnnBy8imYpAFS-30">
          <mxGeometry relative="1" as="geometry" />
        </mxCell>
        <mxCell id="z0WuMO5tnnBy8imYpAFS-33" style="edgeStyle=orthogonalEdgeStyle;rounded=0;orthogonalLoop=1;jettySize=auto;html=1;exitX=0.5;exitY=1;exitDx=0;exitDy=0;entryX=0;entryY=0.5;entryDx=0;entryDy=0;" edge="1" parent="1" source="z0WuMO5tnnBy8imYpAFS-28" target="z0WuMO5tnnBy8imYpAFS-31">
          <mxGeometry relative="1" as="geometry">
            <mxPoint x="360" y="3710" as="targetPoint" />
          </mxGeometry>
        </mxCell>
        <mxCell id="z0WuMO5tnnBy8imYpAFS-28" value="/admin" style="rounded=0;whiteSpace=wrap;html=1;" vertex="1" parent="1">
          <mxGeometry x="190" y="3520" width="120" height="60" as="geometry" />
        </mxCell>
        <mxCell id="z0WuMO5tnnBy8imYpAFS-30" value="/users" style="rounded=0;whiteSpace=wrap;html=1;" vertex="1" parent="1">
          <mxGeometry x="364" y="3710" width="120" height="60" as="geometry" />
        </mxCell>
        <mxCell id="z0WuMO5tnnBy8imYpAFS-31" value="/posts" style="rounded=0;whiteSpace=wrap;html=1;" vertex="1" parent="1">
          <mxGeometry x="364" y="3620" width="120" height="60" as="geometry" />
        </mxCell>
        <mxCell id="z0WuMO5tnnBy8imYpAFS-38" style="edgeStyle=orthogonalEdgeStyle;rounded=0;orthogonalLoop=1;jettySize=auto;html=1;exitX=0.5;exitY=1;exitDx=0;exitDy=0;entryX=0;entryY=0.5;entryDx=0;entryDy=0;" edge="1" parent="1" source="z0WuMO5tnnBy8imYpAFS-35" target="z0WuMO5tnnBy8imYpAFS-37">
          <mxGeometry relative="1" as="geometry" />
        </mxCell>
        <mxCell id="z0WuMO5tnnBy8imYpAFS-39" style="edgeStyle=orthogonalEdgeStyle;rounded=0;orthogonalLoop=1;jettySize=auto;html=1;exitX=0.5;exitY=1;exitDx=0;exitDy=0;entryX=0;entryY=0.5;entryDx=0;entryDy=0;" edge="1" parent="1" source="z0WuMO5tnnBy8imYpAFS-35" target="z0WuMO5tnnBy8imYpAFS-5">
          <mxGeometry relative="1" as="geometry" />
        </mxCell>
        <mxCell id="z0WuMO5tnnBy8imYpAFS-41" style="edgeStyle=orthogonalEdgeStyle;rounded=0;orthogonalLoop=1;jettySize=auto;html=1;exitX=0.5;exitY=1;exitDx=0;exitDy=0;entryX=0;entryY=0.5;entryDx=0;entryDy=0;" edge="1" parent="1" source="z0WuMO5tnnBy8imYpAFS-35" target="z0WuMO5tnnBy8imYpAFS-40">
          <mxGeometry relative="1" as="geometry" />
        </mxCell>
        <mxCell id="z0WuMO5tnnBy8imYpAFS-45" style="edgeStyle=orthogonalEdgeStyle;rounded=0;orthogonalLoop=1;jettySize=auto;html=1;exitX=0.5;exitY=1;exitDx=0;exitDy=0;entryX=0;entryY=0.5;entryDx=0;entryDy=0;" edge="1" parent="1" source="z0WuMO5tnnBy8imYpAFS-35" target="z0WuMO5tnnBy8imYpAFS-44">
          <mxGeometry relative="1" as="geometry" />
        </mxCell>
        <mxCell id="z0WuMO5tnnBy8imYpAFS-52" style="edgeStyle=orthogonalEdgeStyle;rounded=0;orthogonalLoop=1;jettySize=auto;html=1;exitX=0.5;exitY=1;exitDx=0;exitDy=0;entryX=0;entryY=0.5;entryDx=0;entryDy=0;" edge="1" parent="1" source="z0WuMO5tnnBy8imYpAFS-35" target="z0WuMO5tnnBy8imYpAFS-19">
          <mxGeometry relative="1" as="geometry" />
        </mxCell>
        <mxCell id="z0WuMO5tnnBy8imYpAFS-53" style="edgeStyle=orthogonalEdgeStyle;rounded=0;orthogonalLoop=1;jettySize=auto;html=1;exitX=0.5;exitY=1;exitDx=0;exitDy=0;entryX=0;entryY=0.5;entryDx=0;entryDy=0;" edge="1" parent="1" source="z0WuMO5tnnBy8imYpAFS-35" target="z0WuMO5tnnBy8imYpAFS-20">
          <mxGeometry relative="1" as="geometry" />
        </mxCell>
        <mxCell id="z0WuMO5tnnBy8imYpAFS-54" style="edgeStyle=orthogonalEdgeStyle;rounded=0;orthogonalLoop=1;jettySize=auto;html=1;exitX=0.5;exitY=1;exitDx=0;exitDy=0;entryX=0;entryY=0.5;entryDx=0;entryDy=0;" edge="1" parent="1" source="z0WuMO5tnnBy8imYpAFS-35" target="z0WuMO5tnnBy8imYpAFS-24">
          <mxGeometry relative="1" as="geometry" />
        </mxCell>
        <mxCell id="z0WuMO5tnnBy8imYpAFS-55" style="edgeStyle=orthogonalEdgeStyle;rounded=0;orthogonalLoop=1;jettySize=auto;html=1;exitX=0.5;exitY=1;exitDx=0;exitDy=0;entryX=0;entryY=0.5;entryDx=0;entryDy=0;" edge="1" parent="1" source="z0WuMO5tnnBy8imYpAFS-35" target="z0WuMO5tnnBy8imYpAFS-26">
          <mxGeometry relative="1" as="geometry" />
        </mxCell>
        <mxCell id="z0WuMO5tnnBy8imYpAFS-35" value="/users" style="rounded=0;whiteSpace=wrap;html=1;" vertex="1" parent="1">
          <mxGeometry x="180" y="1570" width="120" height="60" as="geometry" />
        </mxCell>
        <mxCell id="z0WuMO5tnnBy8imYpAFS-37" value="/login" style="rounded=0;whiteSpace=wrap;html=1;" vertex="1" parent="1">
          <mxGeometry x="340" y="1650" width="120" height="60" as="geometry" />
        </mxCell>
        <mxCell id="z0WuMO5tnnBy8imYpAFS-40" value="/find-password" style="rounded=0;whiteSpace=wrap;html=1;" vertex="1" parent="1">
          <mxGeometry x="340" y="1834" width="120" height="60" as="geometry" />
        </mxCell>
        <mxCell id="z0WuMO5tnnBy8imYpAFS-42" value="/" style="rounded=0;whiteSpace=wrap;html=1;" vertex="1" parent="1">
          <mxGeometry x="360" y="2670" width="120" height="60" as="geometry" />
        </mxCell>
        <mxCell id="z0WuMO5tnnBy8imYpAFS-44" value="/authenticate" style="rounded=0;whiteSpace=wrap;html=1;" vertex="1" parent="1">
          <mxGeometry x="340" y="1920" width="120" height="60" as="geometry" />
        </mxCell>
        <mxCell id="z0WuMO5tnnBy8imYpAFS-46" value="/profile/modify" style="rounded=0;whiteSpace=wrap;html=1;" vertex="1" parent="1">
          <mxGeometry x="520" y="2090" width="120" height="60" as="geometry" />
        </mxCell>
        <mxCell id="z0WuMO5tnnBy8imYpAFS-48" value="/posts/modify" style="rounded=0;whiteSpace=wrap;html=1;" vertex="1" parent="1">
          <mxGeometry x="360" y="2940" width="120" height="60" as="geometry" />
        </mxCell>
        <mxCell id="z0WuMO5tnnBy8imYpAFS-49" value="/posts/delete" style="rounded=0;whiteSpace=wrap;html=1;" vertex="1" parent="1">
          <mxGeometry x="360" y="3030" width="120" height="60" as="geometry" />
        </mxCell>
      </root>
    </mxGraphModel>
  </diagram>
</mxfile>
